HIERARCHY
ROOT Hips
{
	OFFSET 51.054001 -9.103254 85.129700
	CHANNELS 6 Xposition Yposition Zposition Xrotation Yrotation Zrotation
	JOINT spine
	{
		OFFSET 0.000000 -0.367607 6.392601
		CHANNELS 3 Xrotation Yrotation Zrotation
		JOINT spine1
		{
			OFFSET 0.000000 -0.000001 9.176109
			CHANNELS 3 Xrotation Yrotation Zrotation
			JOINT spine2
			{
				OFFSET 0.000000 -0.000002 8.792381
				CHANNELS 3 Xrotation Yrotation Zrotation
				JOINT Neck
				{
					OFFSET 0.000000 -1.076243 22.573692
					CHANNELS 3 Xrotation Yrotation Zrotation
					JOINT Head
					{
						OFFSET 0.000000 -0.000001 6.820114
						CHANNELS 3 Xrotation Yrotation Zrotation
						End Site
						{
							OFFSET 0.000000 5.444268 16.508499
						}
					}
				}
				JOINT RightShoulder
				{
					OFFSET -3.702209 0.515507 9.495087
					CHANNELS 3 Xrotation Yrotation Zrotation
					JOINT RightArm
					{
						OFFSET 0.000000 -0.000002 12.453697
						CHANNELS 3 Xrotation Yrotation Zrotation
						JOINT RightArmRoll
						{
							OFFSET 0.000000 -0.000002 6.286865
							CHANNELS 3 Xrotation Yrotation Zrotation
							JOINT RightForeArm
							{
								OFFSET 0.000000 -0.000003 18.311401
								CHANNELS 3 Xrotation Yrotation Zrotation
								JOINT RightForeArmRoll
								{
									OFFSET 0.000000 -0.000001 7.054825
									CHANNELS 3 Xrotation Yrotation Zrotation
									JOINT RightHand
									{
										OFFSET 0.000000 -0.000002 14.157501
										CHANNELS 3 Xrotation Yrotation Zrotation
										End Site
										{
											OFFSET 0.000000 0.000000 0.100006
										}
									}
								}
							}
						}
					}
				}
				JOINT LeftShoulder
				{
					OFFSET 3.702209 0.515507 9.495087
					CHANNELS 3 Xrotation Yrotation Zrotation
					JOINT LeftArm
					{
						OFFSET 0.000000 -0.000002 12.453697
						CHANNELS 3 Xrotation Yrotation Zrotation
						JOINT LeftArmRoll
						{
							OFFSET 0.000000 -0.000002 6.286865
							CHANNELS 3 Xrotation Yrotation Zrotation
							JOINT LeftForeArm
							{
								OFFSET 0.000000 -0.000003 18.311401
								CHANNELS 3 Xrotation Yrotation Zrotation
								JOINT LeftForeArmRoll
								{
									OFFSET 0.000000 -0.000001 7.054825
									CHANNELS 3 Xrotation Yrotation Zrotation
									JOINT LeftHand
									{
										OFFSET 0.000000 -0.000002 14.157501
										CHANNELS 3 Xrotation Yrotation Zrotation
										End Site
										{
											OFFSET 0.000000 0.000000 0.100006
										}
									}
								}
							}
						}
					}
				}
			}
		}
	}
	JOINT RightUpLeg
	{
		OFFSET -5.666161 0.871611 -1.039032
		CHANNELS 3 Xrotation Yrotation Zrotation
		JOINT RightUpLegRoll
		{
			OFFSET 0.000000 -0.000003 16.600502
			CHANNELS 3 Xrotation Yrotation Zrotation
			JOINT RightLeg
			{
				OFFSET 0.000000 0.000003 -20.557198
				CHANNELS 3 Xrotation Yrotation Zrotation
				JOINT RightLegRoll
				{
					OFFSET 0.000000 -0.000003 20.624397
					CHANNELS 3 Xrotation Yrotation Zrotation
					JOINT RightFoot
					{
						OFFSET 0.000000 -0.000003 17.166405
						CHANNELS 3 Xrotation Yrotation Zrotation
						JOINT RightToeBase
						{
							OFFSET 0.000000 -0.000003 14.350204
							CHANNELS 3 Xrotation Yrotation Zrotation
							End Site
							{
								OFFSET 0.006081 0.801060 6.949707
							}
						}
					}
				}
			}
		}
	}
	JOINT LeftUpLeg
	{
		OFFSET 5.666161 0.871611 -1.039032
		CHANNELS 3 Xrotation Yrotation Zrotation
		JOINT LeftUpLegRoll
		{
			OFFSET 0.000000 -0.000003 16.600601
			CHANNELS 3 Xrotation Yrotation Zrotation
			JOINT LeftLeg
			{
				OFFSET 0.000000 -0.000004 20.557098
				CHANNELS 3 Xrotation Yrotation Zrotation
				JOINT LeftLegRoll
				{
					OFFSET 0.000000 -0.000003 20.815094
					CHANNELS 3 Xrotation Yrotation Zrotation
					JOINT LeftFoot
					{
						OFFSET 0.000000 -0.000003 16.975693
						CHANNELS 3 Xrotation Yrotation Zrotation
						JOINT LeftToeBase
						{
							OFFSET 0.000000 -0.000003 14.350204
							CHANNELS 3 Xrotation Yrotation Zrotation
							End Site
							{
								OFFSET -0.027260 0.801060 6.949707
							}
						}
					}
				}
			}
		}
	}
}
MOTION
Frames: 4
Frame Time: 0.041667
50.818401 -13.036917 85.445702 -0.623060 -0.974893 19.992399 -1.218563 -0.339353 -0.480244 1.562938 -0.674137 -0.966060 3.207961 -0.685656 -0.957910 9.169493 -17.127017 21.822270 8.009625 29.156206 19.803891 -24.645233 -26.781180 -30.844998 -114.823922 -125.768344 -104.449596 0.000002 0.000015 -0.000008 95.030485 0.442986 -3.455468 -0.000000 0.000003 -3.000000 -5.000227 -7.998712 0.000180 0.441574 27.862502 -5.462920 -64.283473 126.101056 68.961203 -0.000001 -0.000001 0.000003 44.872669 6.854466 -1.266614 -0.000005 0.000000 3.000022 -5.000207 7.998708 -0.000161 -3.199955 -176.286786 0.597294 -179.999991 0.000005 -1.138000 168.700441 -3.164577 -0.922974 0.000005 0.000003 0.174387 70.735338 6.882426 2.041239 25.757518 -7.352796 0.478858 -1.747490 166.755954 -3.952260 -0.000020 -0.000005 -1.406061 -7.333159 0.365373 0.485938 -0.000001 -0.000003 0.050600 66.679435 -7.031993 -1.946421 25.462920 7.355615 -0.008605 
50.863998 -13.045517 85.437706 -0.646481 -0.939755 20.127295 -1.222862 -0.342621 -0.478895 1.554310 -0.681393 -0.962215 3.199334 -0.692868 -0.953981 9.080441 -17.257617 21.785930 8.127649 29.236232 19.755684 -24.830620 -26.674401 -31.123379 -114.845751 -126.011403 -103.873599 0.000001 0.000016 -0.000009 94.995979 0.376388 -3.321427 0.000001 0.000007 -3.000001 -5.000228 -7.998712 0.000180 0.418807 27.885366 -5.425966 -64.143317 126.017564 68.629304 -0.000000 -0.000004 0.000003 44.310009 6.882788 -1.266427 -0.000004 0.000000 3.000022 -5.000212 7.998712 -0.000159 -3.188773 -176.316703 0.587505 -179.999991 0.000005 -1.138998 168.616580 -3.157770 -0.926420 0.000005 0.000003 0.177418 70.810531 6.880237 2.040914 25.759232 -7.352764 0.484372 -1.758345 166.745026 -3.959753 -0.000020 -0.000006 -1.405348 -7.320827 0.374864 0.485772 -0.000001 -0.000003 0.050811 66.680917 -7.032049 -1.946135 25.462918 7.355616 -0.008605 
50.910404 -13.048017 85.424309 -0.672131 -0.902420 20.263016 -1.226691 -0.346270 -0.477287 1.546632 -0.689565 -0.957742 3.191670 -0.700986 -0.949408 8.989435 -17.387438 21.748379 8.242243 29.313949 19.707770 -25.016379 -26.569806 -31.402741 -114.866624 -126.255487 -103.292350 0.000001 0.000014 -0.000010 94.961069 0.309640 -3.184425 0.000002 0.000007 -3.000001 -5.000227 -7.998712 0.000180 0.395456 27.908334 -5.388133 -63.998954 125.934113 68.293777 0.000002 -0.000004 0.000004 43.744616 6.909155 -1.264980 -0.000007 0.000000 3.000022 -5.000211 7.998708 -0.000163 -3.175094 -176.350594 0.576085 -179.999991 0.000005 -1.138997 168.534535 -3.149990 -0.930548 0.000005 0.000003 0.180457 70.884140 6.878089 2.040501 25.762056 -7.352734 0.489833 -1.770597 166.730122 -3.970564 -0.000021 -0.000004 -1.404651 -7.314928 0.385751 0.485821 -0.000000 -0.000003 0.050801 66.683110 -7.032030 -1.946093 25.462916 7.355618 -0.008605 
50.956501 -13.045517 85.417603 -0.699395 -0.863445 20.399560 -1.230153 -0.350169 -0.475487 1.539695 -0.698352 -0.952777 3.184724 -0.709715 -0.944345 8.896389 -17.516771 21.709609 8.354204 29.389717 19.659824 -25.202054 -26.467367 -31.682560 -114.886022 -126.500868 -102.705295 0.000002 0.000014 -0.000007 94.926550 0.242540 -3.046442 -0.000002 0.000007 -3.000001 -5.000224 -7.998713 0.000179 0.371029 27.931599 -5.348727 -63.849141 125.851194 67.953757 -0.000001 -0.000004 0.000004 43.179250 6.933699 -1.262363 -0.000003 0.000000 3.000019 -5.000207 7.998711 -0.000161 -3.159593 -176.387491 0.563473 -179.999991 0.000005 -1.138998 168.453707 -3.142233 -0.933588 0.000005 0.000002 0.183510 70.956711 6.875878 2.040245 25.765794 -7.352698 0.495233 -1.784455 166.712213 -3.983727 -0.000021 -0.000005 -1.403929 -7.314526 0.397646 0.486060 -0.000000 -0.000003 0.050607 66.686135 -7.031985 -1.945890 25.462916 7.355620 -0.008604 
